<?xml version="1.0" encoding="utf-8"?>
<!-- Generator: Adobe Illustrator 16.0.0, SVG Export Plug-In . SVG Version: 6.00 Build 0)  -->
<!DOCTYPE svg PUBLIC "-//W3C//DTD SVG 1.0//EN" "http://www.w3.org/TR/2001/REC-SVG-20010904/DTD/svg10.dtd">
<svg version="1.0" id="Layer_1" xmlns="http://www.w3.org/2000/svg" xmlns:xlink="http://www.w3.org/1999/xlink" x="0px" y="0px"
	 width="100px" height="100px" viewBox="0 0 100 100" enable-background="new 0 0 100 100" xml:space="preserve">
<path d="M61.81,54.085C54.261,52.136,45.912,54.092,40,60h-3.333l5-30l3.34-1.667c1.625,3.926,4.694,6.823,8.333,8.333
	C61.194,33.412,66.989,27.282,70,20c-7.36-7.36-17.012-10-26.667-10C26.27,27.067,10,50.638,10,76.667
	c14.702,14.703,36.947,17.207,54.258,7.591L70,90h9.427L65.176,75.749c-6.628,4.896-14.59,7.584-22.988,7.584
	c-9.452,0-18.387-3.353-25.451-9.492c0.83-16.598,8.833-31.842,18.237-44.225l-6.177,37.051H42.76l1.953-1.95
	c3.138-3.138,7.262-4.707,11.387-4.707c4.121,0,8.245,1.569,11.383,4.707L72.197,60c-1.211-1.208-2.529-2.239-3.916-3.118
	c4.893-4.88,12.399-6.67,19.17-3.867L90,54.069v-7.217C79.795,42.633,68.398,45.897,61.81,54.085z M61.595,21.66
	c-2.047,3.07-4.769,5.615-7.988,7.461c-1.061-0.885-1.897-2.025-2.441-3.34l-3.671-8.864C52.942,17.451,57.688,19.004,61.595,21.66z
	"/>
</svg>
