<?xml version="1.0" encoding="utf-8"?>
<!-- Generator: Adobe Illustrator 16.0.0, SVG Export Plug-In . SVG Version: 6.00 Build 0)  -->
<!DOCTYPE svg PUBLIC "-//W3C//DTD SVG 1.1//EN" "http://www.w3.org/Graphics/SVG/1.1/DTD/svg11.dtd">
<svg version="1.1"
	 id="GUIDE" xmlns:sodipodi="http://sodipodi.sourceforge.net/DTD/sodipodi-0.dtd" xmlns:inkscape="http://www.inkscape.org/namespaces/inkscape" xmlns:dc="http://purl.org/dc/elements/1.1/" xmlns:svg="http://www.w3.org/2000/svg" xmlns:cc="http://creativecommons.org/ns#" xmlns:rdf="http://www.w3.org/1999/02/22-rdf-syntax-ns#"
	 xmlns="http://www.w3.org/2000/svg" xmlns:xlink="http://www.w3.org/1999/xlink" x="0px" y="0px" width="539.5px" height="539.5px"
	 viewBox="0 0 539.5 539.5" enable-background="new 0 0 539.5 539.5" xml:space="preserve">
<g>
	<path d="M257.728,325.249l-20.073,38.634l-42.767,5.281l31.229,34.601l-8.108,40.111l39.72-18.479l39.719,18.479l-8.107-40.111
		l31.23-34.601l-42.768-5.281L257.728,325.249z M273.141,399.327l3.725,18.43l-19.137-8.902l-19.136,8.902l3.726-18.43
		l-16.977-18.81l21.985-2.715l10.401-20.021l10.402,20.021l21.987,2.715L273.141,399.327z"/>
	<path d="M285.789,276.356c7.928-7.558,12.883-18.207,12.883-30v-17.982l56.465-39.394V32.25H159.274v156.757l56.464,38.939v18.41
		c0,11.793,4.956,22.442,12.884,30c-50.86,12.793-88.629,58.906-88.629,113.68c0,64.632,52.581,117.214,117.213,117.214
		c64.632,0,117.212-52.582,117.212-117.214C374.418,335.263,336.65,289.149,285.789,276.356z M250.228,233.511l-38.131-26.297V47.25
		h38.131V233.511z M265.228,47.25h38.133v159.563l-38.133,26.604V47.25z M340.137,181.156l-21.775,15.192V47.25h21.775V181.156z
		 M174.274,47.25h22.823v149.62l-22.823-15.74V47.25z M230.738,246.356v-8.064l27.016,18.631l25.918-18.083v7.517
		c0,14.595-11.873,26.469-26.466,26.469C242.611,272.825,230.738,260.951,230.738,246.356z M257.206,492.25
		c-56.36,0-102.213-45.853-102.213-102.214c0-56.359,45.853-102.211,102.213-102.211c56.361,0,102.212,45.852,102.212,102.211
		C359.418,446.397,313.566,492.25,257.206,492.25z"/>
	<path d="M257.206,302.825c-48.089,0-87.213,39.123-87.213,87.211c0,48.09,39.124,87.214,87.213,87.214
		c48.089,0,87.212-39.124,87.212-87.214C344.418,341.948,305.295,302.825,257.206,302.825z M257.206,462.25
		c-39.818,0-72.213-32.395-72.213-72.214c0-39.817,32.395-72.211,72.213-72.211c39.818,0,72.212,32.394,72.212,72.211
		C329.418,429.855,297.023,462.25,257.206,462.25z"/>
	<rect x="132.26" y="276.856" transform="matrix(0.7071 0.7071 -0.7071 0.7071 242.708 -17.2659)" width="19.873" height="15"/>
	<rect x="103.05" y="247.646" transform="matrix(-0.7071 -0.7071 0.7071 -0.7071 12.4742 515.4587)" width="19.873" height="15"/>
	<rect x="134.696" y="245.21" transform="matrix(0.7072 0.707 -0.707 0.7072 222.0383 -25.8246)" width="15" height="19.873"/>
	<rect x="105.486" y="274.42" transform="matrix(-0.7072 -0.707 0.707 -0.7072 -8.1648 565.3314)" width="15" height="19.873"/>
	
		<rect x="416.578" y="457.934" transform="matrix(-0.7071 -0.7071 0.7071 -0.7071 399.0164 1096.1379)" width="19.873" height="15"/>
	
		<rect x="387.367" y="428.724" transform="matrix(-0.7071 -0.7071 0.7071 -0.7071 369.8033 1025.6182)" width="19.873" height="15"/>
	<rect x="419.014" y="426.288" transform="matrix(0.7072 0.707 -0.707 0.7072 433.3242 -173.8241)" width="15" height="19.874"/>
	<rect x="389.804" y="455.498" transform="matrix(-0.7072 -0.707 0.707 -0.7072 349.1841 1075.4871)" width="15" height="19.872"/>
</g>
</svg>
